<svg xmlns="http://www.w3.org/2000/svg" viewBox="0 0 64 64" width="64" height="64">
  <defs>
    <linearGradient id="g" x1="0%" y1="0%" x2="100%" y2="100%">
      <stop offset="0%" style="stop-color:#6366F1"/>
      <stop offset="100%" style="stop-color:#8B5CF6"/>
    </linearGradient>
  </defs>
  <!-- Dark bg -->
  <rect width="64" height="64" rx="12" fill="#1A1A2E"/>
  <!-- "0x" pixel block -->
  <!-- 0 -->
  <rect x="4"  y="8"  width="8"  height="8"  fill="url(#g)"/>
  <rect x="12" y="8"  width="8"  height="8"  fill="url(#g)"/>
  <rect x="4"  y="16" width="8"  height="8"  fill="url(#g)"/>
  <rect x="12" y="16" width="8"  height="8"  fill="url(#g)"/>
  <rect x="4"  y="24" width="8"  height="8"  fill="url(#g)"/>
  <rect x="12" y="24" width="8"  height="8"  fill="url(#g)"/>
  <rect x="4"  y="32" width="8"  height="8"  fill="url(#g)"/>
  <rect x="12" y="32" width="8"  height="8"  fill="url(#g)"/>
  <rect x="4"  y="40" width="8"  height="8"  fill="url(#g)"/>
  <rect x="12" y="40" width="8"  height="8"  fill="url(#g)"/>
  <!-- x -->
  <rect x="24" y="8"  width="8"  height="8"  fill="url(#g)"/>
  <rect x="32" y="8"  width="8"  height="8"  fill="url(#g)"/>
  <rect x="24" y="16" width="8"  height="8"  fill="url(#g)"/>
  <rect x="32" y="16" width="8"  height="8"  fill="url(#g)"/>
  <rect x="24" y="24" width="8"  height="8"  fill="url(#g)"/>
  <rect x="32" y="24" width="8"  height="8"  fill="url(#g)"/>
  <rect x="24" y="32" width="8"  height="8"  fill="url(#g)"/>
  <rect x="32" y="32" width="8"  height="8"  fill="url(#g)"/>
  <rect x="24" y="40" width="8"  height="8"  fill="url(#g)"/>
  <rect x="32" y="40" width="8"  height="8"  fill="url(#g)"/>
  <!-- P -->
  <rect x="44" y="8"  width="8"  height="8"  fill="url(#g)"/>
  <rect x="52" y="8"  width="8"  height="8"  fill="url(#g)"/>
  <rect x="44" y="16" width="8"  height="8"  fill="url(#g)"/>
  <rect x="52" y="16" width="8"  height="8"  fill="url(#g)"/>
  <rect x="44" y="24" width="8"  height="8"  fill="url(#g)"/>
  <rect x="52" y="24" width="8"  height="8"  fill="url(#g)"/>
  <rect x="44" y="32" width="8"  height="8"  fill="url(#g)"/>
  <rect x="44" y="40" width="8"  height="8"  fill="url(#g)"/>
</svg>
